#!OML:ASF I:\Actors\actors\Patient Classification 2\Patient 1\Session 1\actor1.ASF
:FULLY-SPECIFIED
:DEGREES
128
root -1.66787 18.0458 5.55572 -3.12306 -3.83247 -6.01247
lowerback 5.84636 0.336393 4.62092
upperback 0.527347 0.788357 1.42911
thorax -2.69355 0.347093 -1.18181
lowerneck -12.6179 -1.4349 -1.04235
upperneck 24.3649 -2.54977 2.92016
head 9.8558 -0.952749 0.885987
rclavicle 3.36148e-015 1.72943e-014
rhumerus -57.7714 -3.33028 -85.9274
rradius 70.5172
rwrist 11.8935
rhand -20.7239 -15.3529
rfingers 7.12502
rthumb 5.64095 -45.2578
lclavicle 3.36148e-015 1.72943e-014
lhumerus -27.0612 -9.369 90.7565
lradius 66.5549
lwrist 26.5093
lhand -14.0919 -20.6383
lfingers 7.12502
lthumb 12.0405 8.99531
rfemur 13.3503 -1.54112 24.3484
rtibia -2.94741
rfoot -13.6568 -7.44123
rtoes 11.564
lfemur 22.1989 -6.38425 -8.67609
ltibia -20.4046
lfoot -1.81475 21.4499
ltoes -15.4412
129
root -1.70184 18.0412 5.54558 -3.23395 -3.88262 -5.97114
lowerback 5.95417 0.14729 4.66845
upperback 0.480737 0.551037 1.52384
thorax -2.8156 0.225831 -1.09255
lowerneck -12.6342 -1.24765 -0.878915
upperneck 24.3972 -2.2315 2.55237
head 9.85626 -0.832208 0.76845
rclavicle 1.12526e-014 -1.00386e-014
rhumerus -58.4908 -3.61147 -84.9884
rradius 74.5599
rwrist 13.114
rhand -23.0115 -13.9878
rfingers 7.12502
rthumb 3.43196 -43.9399
lclavicle 1.12526e-014 -1.00386e-014
lhumerus -25.6021 -9.6616 90.487
lradius 67.1563
lwrist 26.7409
lhand -14.1934 -20.8122
lfingers 7.12502
lthumb 11.9426 8.82719
rfemur 13.8251 -1.51854 24.403
rtibia -3.6933
rfoot -13.3124 -7.54765
rtoes 11.8498
lfemur 22.269 -6.19166 -8.56279
ltibia -20.3556
lfoot -1.73724 21.2611
ltoes -15.6029
130
root -1.73507 18.0357 5.53316 -3.35791 -4.01446 -5.99826
lowerback 6.08243 -0.0535222 4.78902
upperback 0.474377 0.304141 1.65584
thorax -2.90741 0.100288 -1.00367
lowerneck -12.6814 -1.05061 -0.741453
upperneck 24.3643 -1.90529 2.23666
head 9.842 -0.704875 0.674091
rclavicle -3.6418e-016 6.36111e-015
rhumerus -59.009 -3.79261 -83.9919
rradius 79.088
rwrist 13.9712
rhand -25.47 -13.2861
rfingers 7.12502
rthumb 1.05763 -43.2632
lclavicle -3.6418e-016 6.36111e-015
lhumerus -24.1002 -9.8539 90.1802
lradius 67.5573
lwrist 26.9023
lhand -14.2049 -20.9955
lfingers 7.12502
lthumb 11.9315 8.64451
rfemur 14.3337 -1.42615 24.5495
rtibia -4.49549
rfoot -12.9251 -7.75337
rtoes 11.9158
lfemur 22.3676 -6.00773 -8.38624
ltibia -20.2959
lfoot -1.74208 21.1949
ltoes -15.6879
131
root -1.76716 18.0305 5.52029 -3.46603 -4.23437 -6.04592
lowerback 6.19405 -0.278456 4.97314
upperback 0.474178 0.0283277 1.77567
thorax -2.98484 -0.0401397 -0.959101
lowerneck -12.6788 -0.79426 -0.565833
upperneck 24.2583 -1.50795 1.93827
head 9.79266 -0.540041 0.5879
rclavicle 5.43901e-015 1.68967e-015
rhumerus -59.2906 -3.79382 -83.072
rradius 83.9778
rwrist 14.1608
rhand -28.4194 -12.5384
rfingers 7.12502
rthumb -1.79101 -42.5107
lclavicle 5.43901e-015 1.68967e-015
lhumerus -22.6908 -9.99233 89.7371
lradius 67.9049
lwrist 27.0794
lhand -14.1309 -21.0828
lfingers 7.12502
lthumb 12.0029 8.55305
rfemur 14.8576 -1.24906 24.7278
rtibia -5.37189
rfoot -12.5264 -8.01783
rtoes 12.0169
lfemur 22.4665 -5.71601 -8.17372
ltibia -20.2172
lfoot -1.70793 21.0875
ltoes -16.1527
132
root -1.79754 18.0272 5.50726 -3.56814 -4.56423 -6.00571
lowerback 6.32636 -0.534114 5.09357
upperback 0.45017 -0.290898 1.85794
thorax -3.10122 -0.202665 -0.91231
lowerneck -12.5247 -0.45641 -0.192142
upperneck 24.0657 -0.992867 1.44851
head 9.6825 -0.325291 0.415592
rclavicle -2.93042e-014 3.48681e-014
rhumerus -59.3036 -3.58929 -82.1087
rradius 89.333
rwrist 14.922
rhand -28.4668 -12.3767
rfingers 7.12502
rthumb -1.8367 -42.3485
lclavicle -2.93042e-014 3.48681e-014
lhumerus -21.5377 -10.0785 89.1258
lradius 68.2827
lwrist 27.3168
lhand -14.0211 -21.2159
lfingers 7.12502
lthumb 12.1087 8.41375
rfemur 15.3452 -0.947348 24.8293
rtibia -6.21296
rfoot -12.1084 -8.32075
rtoes 11.9532
lfemur 22.597 -5.38077 -8.06577
ltibia -20.1421
lfoot -1.66699 21.0249
ltoes -16.6984
133
root -1.82602 18.0238 5.49318 -3.66855 -4.97904 -5.90909
lowerback 6.47336 -0.828487 5.12565
upperback 0.432538 -0.665091 1.99326
thorax -3.22083 -0.390892 -0.754271
lowerneck -12.485 -0.0760168 0.178093
upperneck 24.0057 -0.382252 0.805236
head 9.64561 -0.0820557 0.201915
rclavicle -3.34828e-015 4.77083e-015
rhumerus -58.7832 -3.03238 -81.1302
rradius 94.7595
rwrist 15.3154
rhand -31.5662 -11.7806
rfingers 7.12502
rthumb -4.82986 -41.7055
lclavicle -3.34828e-015 4.77083e-015
lhumerus -20.5209 -9.93104 88.523
lradius 68.5723
lwrist 27.6241
lhand -13.9483 -21.3071
lfingers 7.12502
lthumb 12.1789 8.31841
rfemur 15.8018 -0.574395 24.8823
rtibia -7.01691
rfoot -11.6991 -8.64149
rtoes 11.6573
lfemur 22.7415 -4.98411 -8.022
ltibia -20.0637
lfoot -1.66131 20.9961
ltoes -16.87
134
root -1.85375 18.0192 5.47859 -3.75362 -5.44692 -5.86265
lowerback 6.62689 -1.14477 5.19477
upperback 0.412578 -1.06297 2.18235
thorax -3.34588 -0.591033 -0.556489
lowerneck -12.5477 0.310816 0.392315
upperneck 24.0666 0.252626 0.236026
head 9.67778 0.167099 0.0435236
rclavicle 4.65746e-015 -2.70347e-014
rhumerus -57.622 -2.20451 -80.1331
rradius 100.162
rwrist 15.2522
rhand -34.4713 -11.3311
rfingers 7.12502
rthumb -7.63444 -41.1733
lclavicle 4.65746e-015 -2.70347e-014
lhumerus -19.5856 -9.66276 87.9474
lradius 68.8184
lwrist 28.1951
lhand -13.9128 -21.0724
lfingers 7.12502
lthumb 12.2132 8.55101
rfemur 16.2511 -0.154065 24.9995
rtibia -7.83125
rfoot -11.3367 -8.98705
rtoes 11.2685
lfemur 22.8758 -4.54075 -7.91147
ltibia -19.9603
lfoot -1.71421 20.9414
ltoes -16.7318
135
root -1.88005 18.0155 5.46361 -3.83091 -6.02534 -5.82231
lowerback 6.83383 -1.4103 5.31649
upperback 0.346115 -1.38474 2.29962
thorax -3.54693 -0.756532 -0.465154
lowerneck -12.4633 0.677365 0.736027
upperneck 24.1092 0.818243 -0.286579
head 9.68132 0.400672 -0.129199
rclavicle 3.66509e-015 -1.37161e-014
rhumerus -55.9632 -1.38103 -78.9606
rradius 105.784
rwrist 15.8275
rhand -35.8281 -11.7789
rfingers 7.12502
rthumb -8.94388 -41.5693
lclavicle 3.66509e-015 -1.37161e-014
lhumerus -18.8241 -9.64717 87.2387
lradius 69.0554
lwrist 29.0239
lhand -13.907 -20.7488
lfingers 7.12502
lthumb 12.2188 8.8743
rfemur 16.6652 0.373962 25.1378
rtibia -8.60887
rfoot -10.9606 -9.34679
rtoes 11.0387
lfemur 23.0434 -4.14675 -7.81416
ltibia -19.8407
lfoot -1.91827 21.0259
ltoes -15.9902
136
root -1.90275 18.0145 5.45161 -3.844 -6.74567 -5.69638
lowerback 6.94119 -1.61623 5.42985
upperback 0.264058 -1.63671 2.33421
thorax -3.70712 -0.887322 -0.461821
lowerneck -12.4359 1.0242 1.13697
upperneck 24.2955 1.32466 -0.734837
head 9.75175 0.619903 -0.292774
rclavicle 1.38124e-014 7.15625e-015
rhumerus -53.6404 -0.467708 -77.6727
rradius 111.258
rwrist 16.1251
rhand -37.7993 -12.1055
rfingers 7.12502
rthumb -10.8457 -41.8055
lclavicle 1.38124e-014 7.15625e-015
lhumerus -18.1763 -9.80407 86.4123
lradius 69.206
lwrist 29.824
lhand -13.9571 -20.495
lfingers 7.12502
lthumb 12.1704 9.13095
rfemur 16.9443 1.05076 25.2152
rtibia -9.29051
rfoot -10.5496 -9.69439
rtoes 10.8345
lfemur 23.1981 -3.66407 -7.82637
ltibia -19.72
lfoot -2.18502 21.227
ltoes -14.9753
137
root -1.92201 18.0163 5.44562 -3.74108 -7.49118 -5.54138
lowerback 6.797 -1.81989 5.59427
upperback 0.190678 -1.90238 2.34006
thorax -3.72108 -1.02331 -0.522072
lowerneck -12.4403 1.3627 1.49621
upperneck 24.5325 1.81186 -1.11035
head 9.85007 0.833901 -0.426152
rclavicle 3.88873e-014 2.78299e-015
rhumerus -50.582 0.602655 -76.068
rradius 116.479
rwrist 16.719
rhand -39.9675 -12.6438
rfingers 7.12502
rthumb -12.9365 -42.2228
lclavicle 3.88873e-014 2.78299e-015
lhumerus -17.5196 -9.79992 85.6069
lradius 69.1538
lwrist 30.3912
lhand -13.9692 -20.2117
lfingers 7.12502
lthumb 12.1588 9.41495
rfemur 17.0602 1.76539 25.2629
rtibia -9.87582
rfoot -10.1841 -9.98956
rtoes 10.5584
lfemur 23.2421 -3.05403 -7.8656
ltibia -19.5944
lfoot -2.3194 21.3607
ltoes -14.682
138
root -1.93967 18.0208 5.44154 -3.56941 -8.21116 -5.3827
lowerback 6.54173 -2.02399 5.79016
upperback 0.0931071 -2.17565 2.30897
thorax -3.70227 -1.16374 -0.641034
lowerneck -12.3588 1.68482 1.92673
upperneck 24.7475 2.25565 -1.46193
head 9.9283 1.03708 -0.569129
rclavicle -3.79368e-014 3.61788e-014
rhumerus -46.7797 1.60897 -74.0996
rradius 121.266
rwrist 17.71
rhand -42.1412 -14.0407
rfingers 7.12502
rthumb -15.0311 -43.4751
lclavicle -3.79368e-014 3.61788e-014
lhumerus -16.8517 -9.63553 84.8521
lradius 68.8848
lwrist 30.8172
lhand -13.8785 -19.9101
lfingers 7.12502
lthumb 12.2463 9.71132
rfemur 17.0619 2.46671 25.2834
rtibia -10.3513
rfoot -9.9502 -10.2277
rtoes 10.4817
lfemur 23.2021 -2.38558 -7.90091
ltibia -19.4752
lfoot -2.33464 21.4085
ltoes -15.1598
139
root -1.95673 18.0264 5.43909 -3.39149 -8.88656 -5.21767
lowerback 6.25943 -2.21769 5.99388
upperback -0.0235759 -2.43836 2.22553
thorax -3.69226 -1.30011 -0.821117
lowerneck -12.3031 1.96347 2.31709
upperneck 25.0287 2.59816 -1.6177
head 10.0339 1.21155 -0.648984
rclavicle -3.598e-014 5.56597e-015
rhumerus -42.0556 2.08553 -71.8737
rradius 125.393
rwrist 18.8794
rhand -44.3968 -15.0572
rfingers 7.12502
rthumb -17.2031 -44.3157
lclavicle -3.598e-014 5.56597e-015
lhumerus -16.2275 -9.47905 84.1063
lradius 68.5186
lwrist 31.2588
lhand -13.7735 -19.5776
lfingers 7.12502
lthumb 12.3475 10.0377
rfemur 16.9934 2.71384 25.1619
rtibia -10.689
rfoot -9.57169 -10.0764
rtoes 10.3655
lfemur 23.1556 -1.70734 -7.92792
ltibia -19.3987
lfoot -2.2992 21.4133
ltoes -15.6583
140
root -1.97314 18.0302 5.44199 -3.26747 -9.45298 -5.09735
lowerback 5.97879 -2.47652 6.18063
upperback -0.14747 -2.78796 2.18522
thorax -3.69597 -1.4795 -0.939216
lowerneck -12.2259 2.26018 2.62452
upperneck 25.348 2.98165 -1.7514
head 10.1512 1.39948 -0.702045
rclavicle -7.45443e-016 2.46493e-014
rhumerus -36.6273 2.26391 -69.2812
rradius 129.019
rwrist 20.4428
rhand -46.3862 -14.6473
rfingers 7.12502
rthumb -19.1171 -43.7278
lclavicle -7.45443e-016 2.46493e-014
lhumerus -15.7661 -9.12093 83.452
lradius 68.1376
lwrist 31.7197
lhand -13.7211 -19.183
lfingers 7.12502
lthumb 12.3981 10.4293
rfemur 16.9607 2.93672 25.0993
rtibia -10.9126
rfoot -9.287 -9.92548
rtoes 10.1105
lfemur 23.1836 -1.07408 -7.89167
ltibia -19.3795
lfoot -2.21116 21.3231
ltoes -15.5382
141
root -1.98715 18.0301 5.44843 -3.21858 -9.95479 -5.01057
lowerback 5.78546 -2.7911 6.23787
upperback -0.279657 -3.2096 2.27109
thorax -3.75039 -1.69246 -0.844738
lowerneck -12.1184 2.56962 2.91427
upperneck 25.6888 3.44885 -2.10583
head 10.2791 1.5985 -0.819883
rclavicle -1.34428e-014 6.36111e-015
rhumerus -30.7729 2.28907 -66.2369
rradius 132.497
rwrist 21.7779
rhand -45.8425 -15.1806
rfingers 7.12502
rthumb -18.5942 -44.3119
lclavicle -1.34428e-014 6.36111e-015
lhumerus -15.4546 -8.4624 83.0365
lradius 67.7468
lwrist 32.0656
lhand -13.8702 -18.7207
lfingers 7.12502
lthumb 12.2543 10.9003
rfemur 17.0035 3.14818 25.0702
rtibia -11.0705
rfoot -9.07235 -9.72852
rtoes 10.0801
lfemur 23.3188 -0.518148 -7.83423
ltibia -19.4022
lfoot -2.18174 21.1627
ltoes -14.4623
